PathFileType	4	(X/Y/Z)	C:\Users\Basilio\Documents\Thesis Gigler\squatting_fais\c3dfiles\054\SLS_front_pre3\markers_experimental.trc
DataRate	CameraRate	NumFrames	NumMarkers	Units	OrigDataRate	OrigDataStartFrame	OrigNumFrames
200.000000	200.000000	4	61	mm	200.000000	1067	1423
Frame#	Time	FHD			LBHD			RBHD			C7			T10			CLAV			LSHO			LUUPA			LMUPA			LDUPA			LLEP			LMEP			LRAD			LUL			LRFIN			RSHO			RUPA1			RMUPA			RDUPA			RLEP			RMEP			RRAD			RUL			RUFIN			LASI			RASI			USACR			LSACR			RSACR			LTHI1			LTHI2			LTHI3			LTHI4			LLFC			LMFC			LTIB1			LTIB2			LTIB3			LTIB4			LLMAL			LMMAL			LHEE			LMT1			LMT2			LMT5			RTHI			RTHI2			RTHI3			RTHI4			RLFC			RMFC			RTIB1			RTIB2			RTIB3			RTIB4			RLMAL			RMMAL			RHEE			RMT1			RMT2			RMT5			
		X1	Y1	Z1	X2	Y2	Z2	X3	Y3	Z3	X4	Y4	Z4	X5	Y5	Z5	X6	Y6	Z6	X7	Y7	Z7	X8	Y8	Z8	X9	Y9	Z9	X10	Y10	Z10	X11	Y11	Z11	X12	Y12	Z12	X13	Y13	Z13	X14	Y14	Z14	X15	Y15	Z15	X16	Y16	Z16	X17	Y17	Z17	X18	Y18	Z18	X19	Y19	Z19	X20	Y20	Z20	X21	Y21	Z21	X22	Y22	Z22	X23	Y23	Z23	X24	Y24	Z24	X25	Y25	Z25	X26	Y26	Z26	X27	Y27	Z27	X28	Y28	Z28	X29	Y29	Z29	X30	Y30	Z30	X31	Y31	Z31	X32	Y32	Z32	X33	Y33	Z33	X34	Y34	Z34	X35	Y35	Z35	X36	Y36	Z36	X37	Y37	Z37	X38	Y38	Z38	X39	Y39	Z39	X40	Y40	Z40	X41	Y41	Z41	X42	Y42	Z42	X43	Y43	Z43	X44	Y44	Z44	X45	Y45	Z45	X46	Y46	Z46	X47	Y47	Z47	X48	Y48	Z48	X49	Y49	Z49	X50	Y50	Z50	X51	Y51	Z51	X52	Y52	Z52	X53	Y53	Z53	X54	Y54	Z54	X55	Y55	Z55	X56	Y56	Z56	X57	Y57	Z57	X58	Y58	Z58	X59	Y59	Z59	X60	Y60	Z60	X61	Y61	Z61	

1068	5.335	-218.1114959716797	1795.341430664063	-1070.735229492188	-377.2638244628907	1744.214233398438	-1147.710693359375	-399.454315185547	1742.121459960938	-1009.023742675781	-434.3150329589845	1573.059326171875	-1070.900146484375	-475.542449951172	1245.979125976563	-1066.842407226563	-290.0012817382813	1514.582275390625	-1074.365234375	-359.7991638183594	1564.771728515625	-1228.9765625	-224.2950286865235	1435.745483398438	-1358.685913085938	-187.8192901611328	1467.067138671875	-1346.534423828125	-157.2084197998047	1422.396484375	-1372.127685546875	-98.81134033203128	1421.936889648438	-1372.392211914063	-101.8245315551758	1355.180908203125	-1329.217529296875	157.5264282226563	1421.51708984375	-1288.789672851563	172.4326171875	1393.436279296875	-1359.952026367188	250.7120361328126	1436.812255859375	-1305.149047851563	-355.1831665039063	1568.267456054688	-924.3494873046877	-221.7514801025391	1443.000366210938	-782.9954833984377	-183.4302673339844	1471.276123046875	-790.905944824219	-156.3960723876953	1423.363403320313	-763.5258789062501	-111.5671005249024	1414.656127929688	-761.1633300781251	-113.6449890136719	1357.59814453125	-812.7321777343752	152.8953399658203	1469.157836914063	-862.2174072265627	157.0716705322266	1431.313110351563	-791.3814086914065	230.771713256836	1495.76904296875	-847.383483886719	-291.6770019531251	1065.893676757813	-1167.993896484375	-296.2144775390626	1110.220458984375	-921.2947998046877	-482.2413940429689	1151.180908203125	-1051.97021484375	-482.7758789062501	1115.178955078125	-1074.13671875	-487.058319091797	1123.2275390625	-1017.678588867188	-364.7481994628907	811.832702636719	-1216.48974609375	-328.0310974121094	734.8635864257814	-1207.684814453125	-281.6336975097657	741.8859252929689	-1204.303833007813	-353.6627197265626	683.2386474609376	-1184.643188476563	-341.8448791503907	532.8963623046876	-1151.455688476563	-310.8372802734376	542.2631835937501	-1014.4775390625	-285.8947143554688	379.0098876953126	-1083.847290039063	-329.7866821289063	323.6858825683594	-1137.046630859375	-291.4793395996094	326.8316345214844	-1111.568359375	-292.2773437500001	252.6822967529297	-1071.158935546875	-340.1640014648438	111.5228042602539	-1097.849975585938	-310.7083740234376	135.1277770996094	-1008.867431640625	-408.6280517578126	104.1417007446289	-1037.657958984375	-198.7015686035157	55.50769042968751	-1018.180847167969	-189.4884338378907	55.05593490600587	-1067.216674804688	-242.5372619628907	39.71691894531251	-1118.143798828125	-180.9949798583985	854.7404785156252	-838.8831787109377	-116.7531356811524	842.528991699219	-852.204040527344	-95.37069702148439	864.2911376953127	-865.6137695312502	-85.81703948974611	766.0990600585939	-866.5347290039065	-43.31385803222657	687.2362060546876	-875.6057739257815	-27.75484848022462	713.0830688476564	-1010.152587890625	47.67722320556641	611.9968872070314	-895.6570434570315	16.06163024902344	516.6782836914064	-858.4296875000002	58.99750137329103	527.4803466796876	-875.2276611328127	88.40029907226564	487.8336486816407	-904.839538574219	102.9782867431641	304.2140502929688	-889.633239746094	127.592643737793	330.4672851562501	-978.1348876953127	55.62677001953126	250.6497497558594	-945.679138183594	271.7084960937501	300.1804504394532	-965.2377929687502	274.6484069824219	311.0696411132813	-918.2642822265627	235.6743316650391	280.6625061035157	-867.8513793945315	
1069	5.34	-218.3182678222657	1795.301391601563	-1070.378051757813	-377.4203796386719	1744.298828125	-1147.613891601563	-399.8239746093751	1742.1787109375	-1008.90234375	-434.4367065429689	1572.973388671875	-1070.8291015625	-475.4786682128907	1245.915161132813	-1066.803466796875	-289.9776611328126	1514.630981445313	-1074.18017578125	-359.7651062011719	1564.701293945313	-1228.901611328125	-224.3256378173829	1435.686157226563	-1358.502563476563	-187.6874542236328	1467.023803710938	-1346.300170898438	-157.4657897949219	1422.595336914063	-1372.048950195313	-98.75088500976565	1421.941040039063	-1372.159423828125	-101.8270034790039	1355.158081054688	-1329.068115234375	157.4843902587891	1420.973510742188	-1288.594848632813	172.4365386962891	1393.25244140625	-1359.744262695313	250.6822662353516	1436.502197265625	-1304.912719726563	-355.4320068359376	1568.2421875	-924.2251586914065	-222.1107940673829	1442.831420898438	-782.8779907226565	-184.1229400634766	1471.2568359375	-790.5330810546877	-156.8863220214844	1423.184692382813	-764.5280151367189	-111.9449539184571	1414.541625976563	-760.6795654296876	-113.9937591552735	1357.591430664063	-812.5299072265627	152.7611236572266	1468.946411132813	-861.5881347656252	156.6095123291016	1431.045532226563	-790.7373657226565	230.3307342529297	1495.509765625	-846.4666137695315	-291.2382507324219	1065.898803710938	-1167.988403320313	-295.8476562500001	1110.215454101563	-921.3074340820315	-482.0268859863282	1151.0537109375	-1052.033325195313	-483.3568725585939	1115.281860351563	-1074.054443359375	-486.7736206054689	1123.07958984375	-1017.749206542969	-364.3057861328126	811.9173583984377	-1216.490478515625	-327.5359802246094	734.8683471679689	-1207.688110351563	-281.2291870117188	741.8823852539064	-1204.297729492188	-353.3199462890626	683.2893676757814	-1184.670166015625	-341.7784118652344	533.0162353515626	-1151.578735351563	-310.5690612792969	542.1920776367189	-1014.568298339844	-285.5744628906251	378.8605957031251	-1084.100341796875	-329.6135559082032	323.6040954589844	-1137.052612304688	-291.4672241210938	326.8020935058594	-1111.58349609375	-292.1477050781251	252.6716003417969	-1071.121826171875	-340.1322631835938	111.5158996582032	-1097.8740234375	-310.7035522460938	135.1199035644532	-1008.886352539063	-408.6306152343751	104.154052734375	-1037.667358398438	-198.7017822265626	55.52158355712892	-1018.188842773438	-189.4944305419922	55.05088806152345	-1067.208251953125	-242.5835571289063	39.65892028808594	-1118.12255859375	-180.849838256836	854.5791625976565	-838.7786865234377	-116.4331130981446	842.1526489257815	-851.9829101562502	-95.04895782470705	864.0564575195315	-865.4519653320315	-85.72249603271486	765.8492431640626	-866.3513183593752	-43.24909210205079	686.9723510742189	-875.3994140625002	-27.49118614196778	712.7652587890626	-1009.905456542969	47.69921112060548	611.7330932617189	-895.4665527343752	15.89534568786621	516.3739624023439	-858.226989746094	58.7793655395508	527.1225585937501	-874.9075317382815	88.40736389160158	487.471893310547	-904.4191894531252	102.2740783691407	303.8145446777344	-889.0315551757815	127.3358383178711	330.1423034667969	-977.9334716796877	55.03012466430665	250.2621154785157	-945.2384033203127	270.9524536132813	299.5354309082032	-964.712829589844	274.4094848632813	310.3171081542969	-917.775085449219	235.0780639648438	279.8073425292969	-867.3879394531252	
1070	5.345	-218.5307769775391	1795.287841796875	-1070.037231445313	-377.5648193359376	1744.350341796875	-1147.500366210938	-400.3281860351564	1742.270385742188	-1008.71630859375	-434.5936584472657	1572.932373046875	-1070.76904296875	-475.2814331054689	1245.79736328125	-1066.834594726563	-290.2983398437501	1514.5419921875	-1074.027709960938	-359.7571105957032	1564.6396484375	-1228.751586914063	-224.294906616211	1435.67626953125	-1358.302124023438	-187.5783996582032	1466.973510742188	-1346.046264648438	-156.992904663086	1422.3603515625	-1371.726318359375	-98.68913269042972	1421.937744140625	-1371.9306640625	-101.7774658203125	1355.149780273438	-1328.846557617188	157.4585723876953	1420.561889648438	-1288.47216796875	172.641830444336	1393.160034179688	-1359.526611328125	250.7437896728516	1436.279907226563	-1304.740356445313	-355.6600341796876	1568.213989257813	-924.134460449219	-222.3254394531251	1442.732177734375	-782.756042480469	-184.4062042236328	1471.196533203125	-790.3153076171877	-157.472152709961	1423.1591796875	-764.1167602539064	-112.4215698242188	1414.30126953125	-761.5686035156251	-114.3950119018555	1357.619506835938	-812.2891845703127	152.4996185302735	1468.750854492188	-860.8777465820315	156.4405517578125	1430.903564453125	-790.0671997070315	229.9810943603516	1495.204711914063	-845.5147705078127	-290.8304748535157	1065.9140625	-1168.006958007813	-295.6806945800782	1110.18505859375	-921.195739746094	-481.9104614257814	1150.924072265625	-1052.009765625	-482.9689941406251	1115.191040039063	-1074.164184570313	-486.3627319335939	1122.932983398438	-1017.833618164063	-363.8280334472657	811.9470214843752	-1216.479614257813	-327.1228942871094	734.9592895507814	-1207.6630859375	-280.8718872070313	742.0125122070314	-1204.38427734375	-352.8369140625001	683.3135375976564	-1184.713500976563	-341.5295715332032	533.0209960937501	-1151.657592773438	-310.1984252929688	542.1154785156251	-1014.663879394531	-285.5480346679688	378.9610900878907	-1083.970092773438	-329.4445800781251	323.6200561523438	-1137.071899414063	-291.4235839843751	326.7590332031251	-1111.567626953125	-292.0794677734376	252.627914428711	-1071.135864257813	-340.1140747070313	111.4899368286133	-1097.922241210938	-310.7015075683594	135.1235809326172	-1008.885681152344	-408.6221313476564	104.141227722168	-1037.713256835938	-198.7052459716797	55.50349426269533	-1018.190795898438	-189.4793395996094	55.04957962036134	-1067.23046875	-242.5450592041016	39.70246505737305	-1118.142456054688	-180.76123046875	854.4060668945315	-838.6789550781252	-116.3033523559571	841.9641113281252	-851.695007324219	-95.07594299316408	863.5627441406252	-865.011169433594	-85.54202270507814	765.4989624023439	-866.1856689453127	-43.22789382934571	686.6270141601564	-875.2092285156252	-27.22804069519044	712.4572143554689	-1009.674926757813	47.55303573608399	611.3529052734376	-895.060729980469	15.83675479888916	516.0535888671876	-858.1076660156252	58.73217010498048	526.5949096679689	-874.5732421875002	87.92778778076173	487.0762939453126	-904.0008544921877	101.9005966186524	303.3817749023438	-888.7590942382815	126.7595901489258	329.6175842285157	-977.358581542969	54.78817367553712	249.8108520507813	-945.2269287109377	270.3072814941407	298.9768066406251	-964.0901489257815	273.8739013671876	309.4402465820313	-917.2351074218752	234.5305633544922	279.2537231445313	-866.9788208007815	
1071	5.350000000000001	-218.5881958007813	1795.226318359375	-1069.740478515625	-377.6971740722657	1744.386596679688	-1147.387329101563	-400.5245666503907	1742.3330078125	-1008.689453125	-434.7623901367189	1572.881713867188	-1070.712158203125	-475.082977294922	1245.675903320313	-1066.82763671875	-290.3218994140626	1514.582397460938	-1073.806640625	-359.8218688964844	1564.609252929688	-1228.626220703125	-224.1742858886719	1435.648071289063	-1358.006958007813	-187.5911254882813	1466.97265625	-1345.789794921875	-156.954086303711	1422.349609375	-1371.554809570313	-98.63688659667972	1421.939819335938	-1371.718139648438	-101.7664489746094	1355.1923828125	-1328.592163085938	157.5001220703125	1420.401733398438	-1288.257568359375	172.7199096679688	1393.043823242188	-1359.293090820313	250.7709045410157	1436.157348632813	-1304.4521484375	-355.9765319824219	1568.259033203125	-923.9922485351565	-222.6213684082032	1442.679931640625	-782.5861816406252	-184.8294372558594	1471.05908203125	-790.0205688476565	-157.7981567382813	1423.0546875	-763.8731079101564	-112.7463150024414	1414.273315429688	-761.2625732421876	-114.8374099731446	1357.615844726563	-811.9986572265627	152.2446594238282	1468.66162109375	-860.1062622070315	156.2104644775391	1430.752197265625	-789.3950805664065	229.6829681396485	1495.16748046875	-844.3614501953127	-290.0284729003907	1065.7724609375	-1167.832641601563	-295.2944641113282	1110.123046875	-921.1834106445315	-481.6701965332032	1150.805541992188	-1052.067749023438	-482.6531066894532	1115.1376953125	-1074.166625976563	-486.1430053710939	1122.779907226563	-1017.917846679688	-363.3738098144532	811.9739379882815	-1216.524169921875	-326.6715393066407	735.2038574218751	-1207.546264648438	-280.3266296386719	741.9769287109376	-1204.432006835938	-352.3185424804688	683.2957763671876	-1184.795166015625	-341.0825805664063	533.0364990234376	-1151.75927734375	-309.9759216308594	542.1003417968751	-1014.696899414063	-285.1714782714844	378.9089355468751	-1084.133666992188	-329.2631530761719	323.5623779296876	-1137.096923828125	-291.2407226562501	326.8343200683594	-1111.582397460938	-291.9434814453126	252.5385131835938	-1071.2314453125	-340.1217041015626	111.449447631836	-1097.9287109375	-310.6958923339844	135.1057891845703	-1008.931091308594	-408.5872497558595	104.1390151977539	-1037.71875	-198.7118530273438	55.5095901489258	-1018.199401855469	-189.4544067382813	55.0510711669922	-1067.205932617188	-242.5518035888672	39.69751358032227	-1118.120849609375	-180.7112884521485	854.2962646484377	-838.5661621093752	-116.1936950683594	841.5747680664065	-851.4733886718752	-94.9267044067383	863.3486328125002	-864.7250976562502	-85.40114593505861	765.2307128906251	-865.9672851562502	-43.23324966430665	686.2679443359376	-874.999938964844	-27.05371856689454	712.1002197265626	-1009.404724121094	47.58624267578126	610.9824218750001	-894.6463012695315	15.50350093841553	515.7516479492189	-857.893493652344	58.46266174316408	526.2220458984376	-874.2156982421877	87.63461303710939	486.641082763672	-903.5764770507815	101.5269165039063	302.9227905273438	-888.5559692382815	126.3561477661133	328.9129638671876	-976.8110961914065	54.01988220214845	249.3843078613282	-944.765319824219	269.9319458007813	298.3271484375001	-963.6619262695315	273.1791076660157	308.6582946777344	-916.6929321289065	233.9383544921876	278.6845703125001	-866.4877929687502	
